<svg xmlns="http://www.w3.org/2000/svg" width="500" height="54.816517" viewBox="0 0 500 54.816517"><path d="M478.682 42.313c-4.79 0-8.265-3.563-8.265-8.466 0-4.904 3.476-8.466 8.265-8.466 4.787 0 8.266 3.562 8.266 8.466 0 4.903-3.479 8.466-8.266 8.466zm7.055-38.918v11.689c-2.658-1.425-5.683-2.17-8.81-2.17-11.968 0-20.65 8.804-20.65 20.933 0 12.15 8.682 20.97 20.65 20.97 4.17 0 8.087-1.453 11.064-4.064l1.228 2.778H500V0Zm-49.253 32.57c0 3.645-1.812 5.733-4.973 5.733-3.19 0-5.015-2.088-5.015-5.733V13.993l-14.41 3.395v19.153c0 10.909 7.806 18.24 19.425 18.24 11.594 0 19.386-7.331 19.386-18.24V13.99l-14.413 3.394v18.582zm-51.867 6.128c-4.675 0-7.937-3.39-7.937-8.246 0-4.857 3.262-8.246 7.937-8.246 4.676 0 7.937 3.392 7.937 8.248 0 4.857-3.261 8.244-7.937 8.244m0-29.177c-12.746 0-21.994 8.802-21.994 20.928 0 12.134 9.248 20.934 21.994 20.934s21.994-8.803 21.994-20.931c0-12.129-9.248-20.928-21.994-20.928M341.022 53.53h15.028V.01L341.022 3.39Zm-31.495-12.782c-6.643 0-11.463-5.26-11.463-12.502 0-7.305 4.82-12.612 11.466-12.612 4.324 0 8.048 2.421 9.96 6.479l14.457-3.474c-3.592-10.491-12.963-17.004-24.45-17.004-15.327 0-26.885 11.438-26.885 26.611 0 15.126 11.558 26.53 26.884 26.53 12.63 0 22.565-7.875 25.317-20.06l.095-.408h-15.582c-1.795 4.032-5.455 6.44-9.797 6.44m-67.245-14.433h-8.766V15.54h8.766a5.386 5.386 0 0 1 5.385 5.388 5.385 5.385 0 0 1-5.385 5.388zm12.68 9.128c5.938-2.485 8.96-7.867 8.96-14.694 0-6.46-2.354-11.235-6.999-14.202-4.313-2.755-9.915-4.038-17.621-4.038H217.73v51.124h16.035V39.349h5.761l9.769 14.285h17.043l-12.925-17.539zm-69.305-1.233h23.302V21.933h-23.302v-6.894h23.55V2.51h-39.834v51.124h40.337V41.102H185.66Zm-50.612 1.915L123.022 2.507h-17.037l20.043 51.127h18.042l20.043-51.127h-17.038ZM94.707 2.507l20.047 51.124H97.716l-2.42-6.763H76.083l-2.421 6.763H56.625L76.671 2.507Zm-9.019 16.108-5.71 15.972h11.424ZM34.826 29.87 15.786 2.507H0v51.127h16.537V26.27L35.58 53.634h15.785V2.507h-16.54Z" style="fill:#03c75b;fill-opacity:1;fill-rule:evenodd;stroke-width:2.78299"/></svg>